<svg xmlns="http://www.w3.org/2000/svg" viewBox="0 0 176.76 285.54">
<g fill="#fff">
<path d="M14.9 2842l462.5-671.1c.2-1.5-8.4-7.8-19.2-13.6-92.7-51.8-174.1-133.9-254.4-256.6-77.3-118.2-119.7-231.6-137-366.1-5.6-43.6-5.6-168.3 0-211.7 21.4-163.3 76-293.1 177.4-420.1C269 871.5 347 792.8 377.7 768c129.4-105.2 265.1-163.5 426.2-183.8 49.9-6.5 128.7-7.6 543.9-7.6H1766V933h-78.8l-78.8 1.1c0 .7 5.6 9.7 12.5 20.1 64.8 96.4 108.4 199.4 129.8 306.3 12.1 59.2 14 83.2 14 162.9 0 75.4-2.2 105.4-11.9 162-29.6 172.8-113.8 328.7-248 458.3-146 141.3-314.3 219.2-512.1 237.2-30.7 2.8-123.8 3-144.1.4l-13.6-1.7-75.8 108-77.1 111.2c-.9 2.4 64.4 2.6 417.7 1.3l418.8-1.5 6.5 10.6c6 9.9 19.9 29.8 87 126.8l47.7 69.3 33.7 48.6 31.5 45.3 26.8 38.9c5.4 7.8 9.7 14.7 9.7 15.6 0 1.1-395.1 1.7-878.3 1.7H5.2zm985.4-919.6c86.4-14.9 157-46.6 224.7-101.1 26.3-21.2 66.1-61.8 87-89 53.8-69.6 87.9-154.6 97.4-242.6 3-27 3-90.9 0-117.9-11.7-108-57.2-204.6-134.6-284.9-96.6-100.4-207.1-149.7-344.7-153.4-69.6-2-121.6 5.2-179.3 24.4-122.7 40.6-231.6 138-289.5 258.6-33.3 69.1-46.2 128.5-46.2 212.1-.2 64.8 6 106.5 24 161.1 46.6 143 169.1 266.6 310.8 313.6 30.7 10.2 70.6 19.2 101.3 22.9 30.3 3.8 119.3 1.4 149.1-3.8zM0 .2l250.4 360.3h1260.8L1767.6 0zm1485.5 316.7H280.8L91.6 44.7H1679z"/>
</g>
</svg>